<svg id="visual" viewBox="0 0 900 600" width="900" height="600" xmlns="http://www.w3.org/2000/svg" xmlns:xlink="http://www.w3.org/1999/xlink" version="1.1"><rect x="0" y="0" width="900" height="600" fill="#fff"></rect><path d="M0 455L21.5 460.3C43 465.7 86 476.3 128.8 477.3C171.7 478.3 214.3 469.7 257.2 466.2C300 462.7 343 464.3 385.8 471.5C428.7 478.7 471.3 491.3 514.2 492.8C557 494.3 600 484.7 642.8 481.8C685.7 479 728.3 483 771.2 486.5C814 490 857 493 878.5 494.5L900 496L900 601L878.5 601C857 601 814 601 771.2 601C728.3 601 685.7 601 642.8 601C600 601 557 601 514.2 601C471.3 601 428.7 601 385.8 601C343 601 300 601 257.2 601C214.3 601 171.7 601 128.8 601C86 601 43 601 21.5 601L0 601Z" fill="#52b0f7"></path><path d="M0 521L21.5 518.2C43 515.3 86 509.7 128.8 509C171.7 508.3 214.3 512.7 257.2 512.2C300 511.7 343 506.3 385.8 507C428.7 507.7 471.3 514.3 514.2 511.8C557 509.3 600 497.7 642.8 496.2C685.7 494.7 728.3 503.3 771.2 508.7C814 514 857 516 878.5 517L900 518L900 601L878.5 601C857 601 814 601 771.2 601C728.3 601 685.7 601 642.8 601C600 601 557 601 514.2 601C471.3 601 428.7 601 385.8 601C343 601 300 601 257.2 601C214.3 601 171.7 601 128.8 601C86 601 43 601 21.5 601L0 601Z" fill="#479ddf"></path><path d="M0 530L21.5 532.2C43 534.3 86 538.7 128.8 542.5C171.7 546.3 214.3 549.7 257.2 546.8C300 544 343 535 385.8 528.5C428.7 522 471.3 518 514.2 519.8C557 521.7 600 529.3 642.8 534.5C685.7 539.7 728.3 542.3 771.2 542.2C814 542 857 539 878.5 537.5L900 536L900 601L878.5 601C857 601 814 601 771.2 601C728.3 601 685.7 601 642.8 601C600 601 557 601 514.2 601C471.3 601 428.7 601 385.8 601C343 601 300 601 257.2 601C214.3 601 171.7 601 128.8 601C86 601 43 601 21.5 601L0 601Z" fill="#3b8bc8"></path><path d="M0 549L21.5 553.7C43 558.3 86 567.7 128.8 569.7C171.7 571.7 214.3 566.3 257.2 566.7C300 567 343 573 385.8 574.2C428.7 575.3 471.3 571.7 514.2 570.5C557 569.3 600 570.7 642.8 570C685.7 569.3 728.3 566.7 771.2 566.7C814 566.7 857 569.3 878.5 570.7L900 572L900 601L878.5 601C857 601 814 601 771.2 601C728.3 601 685.7 601 642.8 601C600 601 557 601 514.2 601C471.3 601 428.7 601 385.8 601C343 601 300 601 257.2 601C214.3 601 171.7 601 128.8 601C86 601 43 601 21.5 601L0 601Z" fill="#3079b1"></path></svg>