<svg id="visual" viewBox="0 0 900 600" width="900" height="600" xmlns="http://www.w3.org/2000/svg" xmlns:xlink="http://www.w3.org/1999/xlink" version="1.1"><rect x="0" y="0" width="900" height="600" fill="#fff"></rect><path d="M0 51L21.5 62.8C43 74.7 86 98.3 128.8 105.2C171.7 112 214.3 102 257.2 91C300 80 343 68 385.8 65.8C428.7 63.7 471.3 71.3 514.2 73.8C557 76.3 600 73.7 642.8 73.2C685.7 72.7 728.3 74.3 771.2 77.8C814 81.3 857 86.7 878.5 89.3L900 92L900 0L878.5 0C857 0 814 0 771.2 0C728.3 0 685.7 0 642.8 0C600 0 557 0 514.2 0C471.3 0 428.7 0 385.8 0C343 0 300 0 257.2 0C214.3 0 171.7 0 128.8 0C86 0 43 0 21.5 0L0 0Z" fill="#52b0f7" stroke-linecap="round" stroke-linejoin="miter"></path></svg>