<svg id="visual" viewBox="0 0 900 600" width="900" height="600" xmlns="http://www.w3.org/2000/svg" xmlns:xlink="http://www.w3.org/1999/xlink" version="1.1"><rect x="0" y="0" width="900" height="600" fill="#fff"></rect><path d="M0 498L16.7 488.5C33.3 479 66.7 460 100 460C133.3 460 166.7 479 200 486.7C233.3 494.3 266.7 490.7 300 492.5C333.3 494.3 366.7 501.7 400 502.3C433.3 503 466.7 497 500 494.5C533.3 492 566.7 493 600 497.8C633.3 502.7 666.7 511.3 700 510.2C733.3 509 766.7 498 800 483.2C833.3 468.3 866.7 449.7 883.3 440.3L900 431L900 601L883.3 601C866.7 601 833.3 601 800 601C766.7 601 733.3 601 700 601C666.7 601 633.3 601 600 601C566.7 601 533.3 601 500 601C466.7 601 433.3 601 400 601C366.7 601 333.3 601 300 601C266.7 601 233.3 601 200 601C166.7 601 133.3 601 100 601C66.7 601 33.3 601 16.7 601L0 601Z" fill="#52b0f7" stroke-linecap="round" stroke-linejoin="miter"></path></svg>